<?xml version="1.0" encoding="UTF-8" standalone="no"?>
<!-- Created with Inkscape (http://www.inkscape.org/) -->

<svg
   xmlns:dc="http://purl.org/dc/elements/1.1/"
   xmlns:cc="http://creativecommons.org/ns#"
   xmlns:rdf="http://www.w3.org/1999/02/22-rdf-syntax-ns#"
   xmlns:svg="http://www.w3.org/2000/svg"
   xmlns="http://www.w3.org/2000/svg"
   xmlns:sodipodi="http://sodipodi.sourceforge.net/DTD/sodipodi-0.dtd"
   xmlns:inkscape="http://www.inkscape.org/namespaces/inkscape"
   width="297mm"
   height="210mm"
   viewBox="0 0 297 210"
   version="1.1"
   id="svg1124"
   inkscape:version="0.92.3 (2405546, 2018-03-11)"
   sodipodi:docname="footer logo.svg"
   inkscape:export-filename="C:\Users\Admin\Desktop\Strona Piu Mosso\logo\logo, dane dotychczasowe\logo poprawiane\logo white on dark.png"
   inkscape:export-xdpi="182"
   inkscape:export-ydpi="182">
  <defs
     id="defs1118" />
  <sodipodi:namedview
     id="base"
     pagecolor="#848484"
     bordercolor="#3b3b3b"
     borderopacity="1"
     inkscape:pageopacity="0"
     inkscape:pageshadow="2"
     inkscape:zoom="0.45254832"
     inkscape:cx="606.86267"
     inkscape:cy="292.64019"
     inkscape:document-units="mm"
     inkscape:current-layer="layer1"
     showgrid="false"
     showguides="false"
     inkscape:guide-bbox="true"
     inkscape:window-width="1920"
     inkscape:window-height="1017"
     inkscape:window-x="-8"
     inkscape:window-y="-8"
     inkscape:window-maximized="1"
     inkscape:measure-start="-644.75,-608.5"
     inkscape:measure-end="-645.25,-586.5"
     inkscape:pagecheckerboard="true">
    <sodipodi:guide
       position="330.77277,303.08364"
       orientation="0,1"
       id="guide1738"
       inkscape:locked="false"
       inkscape:label=""
       inkscape:color="rgb(0,0,255)" />
    <sodipodi:guide
       position="729.25782,-76.302556"
       orientation="1,0"
       id="guide1779"
       inkscape:locked="false" />
    <sodipodi:guide
       position="-434.04571,490.92067"
       orientation="1,0"
       id="guide1131"
       inkscape:locked="false" />
    <sodipodi:guide
       position="-43.507873,-76.302556"
       orientation="0,1"
       id="guide947"
       inkscape:locked="false" />
    <sodipodi:guide
       position="-267.91098,83.628635"
       orientation="0,1"
       id="guide949"
       inkscape:locked="false" />
    <sodipodi:guide
       position="-193.37734,93.894011"
       orientation="0,1"
       id="guide951"
       inkscape:locked="false" />
    <sodipodi:guide
       position="-196.53581,99.714844"
       orientation="0,1"
       id="guide953"
       inkscape:locked="false" />
    <sodipodi:guide
       position="-197.04843,-307.57813"
       orientation="0,1"
       id="guide1000"
       inkscape:locked="false" />
    <sodipodi:guide
       position="-190.76458,-155.11198"
       orientation="0,1"
       id="guide1002"
       inkscape:locked="false" />
    <sodipodi:guide
       position="453.04108,-624.0198"
       orientation="0,1"
       id="guide1130"
       inkscape:locked="false" />
    <sodipodi:guide
       position="-576.60727,-1172.2976"
       orientation="0,1"
       id="guide1427"
       inkscape:locked="false" />
    <sodipodi:guide
       position="234.8177,-76.302558"
       orientation="1,0"
       id="guide1833"
       inkscape:locked="false" />
    <sodipodi:guide
       position="33.072916,-486.17189"
       orientation="1,0"
       id="guide1839"
       inkscape:locked="false" />
    <sodipodi:guide
       position="-1683.7981,851.25351"
       orientation="0,1"
       id="guide1905"
       inkscape:locked="false" />
    <sodipodi:guide
       position="-1744.6019,673.51926"
       orientation="0,1"
       id="guide1907"
       inkscape:locked="false" />
    <sodipodi:guide
       position="-1384.4562,1047.6966"
       orientation="1,0"
       id="guide1909"
       inkscape:locked="false" />
  </sodipodi:namedview>
  <metadata
     id="metadata1121">
    <rdf:RDF>
      <cc:Work
         rdf:about="">
        <dc:format>image/svg+xml</dc:format>
        <dc:type
           rdf:resource="http://purl.org/dc/dcmitype/StillImage" />
        <dc:title />
      </cc:Work>
    </rdf:RDF>
  </metadata>
  <g
     inkscape:label="Layer 1"
     inkscape:groupmode="layer"
     id="layer1"
     transform="translate(0,-87)">
    <text
       xml:space="preserve"
       style="font-style:normal;font-variant:normal;font-weight:normal;font-stretch:normal;font-size:4.23333311px;line-height:1.25;font-family:Calibri;-inkscape-font-specification:Calibri;letter-spacing:0px;word-spacing:0px;fill:#000000;fill-opacity:1;stroke:none;stroke-width:0.26458332"
       x="74.835464"
       y="544.89252"
       id="text1462"><tspan
         sodipodi:role="line"
         id="tspan1460"
         x="74.835464"
         y="548.59668"
         style="stroke-width:0.26458332" /></text>
    <flowRoot
       xml:space="preserve"
       id="flowRoot1464"
       style="font-style:normal;font-variant:normal;font-weight:normal;font-stretch:normal;font-size:96px;line-height:1.25;font-family:Calibri;-inkscape-font-specification:Calibri;letter-spacing:0px;word-spacing:0px;fill:#000000;fill-opacity:1;stroke:none"
       transform="scale(0.26458333)"><flowRegion
         id="flowRegion1466"
         style="font-size:96px"><rect
           id="rect1468"
           width="675"
           height="168.75"
           x="209.375"
           y="2022.5197"
           style="font-size:96px" /></flowRegion><flowPara
         id="flowPara1470" /></flowRoot>    <text
       xml:space="preserve"
       style="font-style:normal;font-variant:normal;font-weight:normal;font-stretch:normal;font-size:4.23333311px;line-height:1.25;font-family:Calibri;-inkscape-font-specification:Calibri;letter-spacing:0px;word-spacing:0px;fill:#000000;fill-opacity:1;stroke:none;stroke-width:0.26458332"
       x="92.604164"
       y="1140.3594"
       id="text1529"><tspan
         sodipodi:role="line"
         id="tspan1527"
         x="92.604164"
         y="1144.0636"
         style="stroke-width:0.26458332" /></text>
    <circle
       style="opacity:1;fill:#000000;fill-opacity:0;stroke:#abf0d1;stroke-width:1.12167633;stroke-linejoin:round;stroke-miterlimit:4;stroke-dasharray:none;stroke-opacity:0.99460916"
       id="path824-69-5-9-9-6-9"
       cx="72.595985"
       cy="188.38496"
       r="62.737522"
       inkscape:export-xdpi="300.39999"
       inkscape:export-ydpi="300.39999"
       inkscape:export-filename="C:\Users\Admin\Desktop\Strona Piu Mosso\logo\logo, dane dotychczasowe\logo poprawiane\poglądowy plik 2.png" />
    <path
       id="path2569-6-2-7-5-2-9-4"
       style="display:inline;opacity:1;fill:#abf0d1;fill-opacity:1;stroke:#abf0d1;stroke-width:0.15625691;stroke-linejoin:round;stroke-miterlimit:4;stroke-dasharray:none;stroke-opacity:1"
       d="m 86.271505,193.63487 c -1.310902,1.03589 -2.917978,0.8508 -3.589454,-0.4132 -0.671475,-1.26409 -0.153127,-3.12845 1.157865,-4.16424 1.310993,-1.0358 2.918069,-0.8508 3.589545,0.4132 0.671475,1.26409 0.153127,3.12845 -1.157956,4.16424 z M 92.546504,174.835 c -1.31091,1.03589 -2.917982,0.8508 -3.589457,-0.4132 -0.671565,-1.26409 -0.153128,-3.12845 1.157867,-4.16424 1.3109,-1.0358 2.91807,-0.8508 3.58945,0.41329 0.67148,1.264 0.15313,3.12836 -1.15786,4.16415 z m -15.385243,13.43941 c 11.189937,-9.12815 7.715081,-20.58402 1.436934,-27.12647 -8.711536,-8.81497 -24.769332,-12.41748 -33.615182,-7.99415 -8.621333,4.88461 -12.247337,13.92328 -5.796167,23.00067 3.24755,4.56943 10.008035,8.0586 15.452576,6.63769 7.215278,-2.38711 8.886179,-8.31994 6.111876,-12.91647 -0.389616,-0.64555 -1.398225,-1.79594 -1.568096,-1.63012 -0.182115,0.17797 0.347125,1.63408 0.312917,3.2255 -1.365097,12.07458 -17.449809,4.61372 -17.234386,-5.26927 0.149707,-6.86059 3.630775,-13.05664 12.302971,-13.17889 22.531741,-0.31751 30.623385,23.44529 13.856214,33.34151 -10.132807,5.80553 -20.318006,9.12321 -27.385377,14.82342 -5.711817,4.18486 -9.41668,13.6019 -7.584998,21.38827 0.461273,1.96105 1.34142,3.58127 1.955371,3.6008 2.980184,0.0955 9.360146,-13.15368 11.680828,-21.95362 6.167149,-22.97528 10.533495,-36.62876 16.707575,-57.10556 0.762668,-2.50604 1.877773,-5.92931 2.889352,-7.30818 1.802155,-1.7675 3.860512,-1.87301 5.643941,-1.35232 0.989884,0.3375 1.585471,0.91049 2.158372,1.32675 0,0 -0.48981,0.0216 -1.528666,0.5278 -1.829341,1.01329 -2.358221,2.76836 -0.924348,4.29712 1.089898,1.08576 2.579855,1.24401 3.832514,0.12252 2.695264,-2.52791 -0.40573,-7.15938 -4.839952,-7.42863 -0.421754,-0.0351 -0.804438,-0.0549 -1.158136,-0.0549 v 0 c -1.060821,0 -1.86517,0.17933 -2.713629,0.70002 -2.19168,1.34493 -3.44902,5.47263 -5.385667,11.65445 -5.741974,19.33388 -8.907604,28.63047 -13.735853,46.37384 0,0 -1.715823,7.26245 -3.737181,11.46532 -2.021358,4.20277 -5.336245,12.44691 -8.745925,13.30581 -3.409769,0.85891 1.401736,-8.91732 4.01544,-12.37994 3.241338,-4.29405 8.44444,-6.90272 13.400341,-8.99663 8.783283,-3.71126 19.578654,-7.32925 24.196341,-11.09614 z m 29.093909,16.12136 c -0.67499,1.20674 -1.2641,2.66843 -2.23886,5.67625 -2.23255,6.88913 -3.49592,8.204 -5.323996,9.9037 -1.15318,1.07235 -4.03425,2.55222 -4.82537,1.13977 -0.86484,-1.54424 1.06785,-7.31412 2.18052,-11.08254 0.52348,-1.77307 1.73239,-4.90854 0.7813,-5.49081 -0.86574,-0.52996 -2.54438,-0.92417 -3.04041,-0.1705 -0.53671,0.81578 -1.42541,3.29274 -2.0444,4.97562 -3.460633,9.40839 -8.728551,13.83172 -11.829274,12.71725 -2.085274,-0.74953 -1.944119,-3.38484 0.519337,-9.69584 1.720144,-4.40497 2.567793,-5.99332 1.768846,-6.67244 -0.601798,-0.51178 -1.94826,-0.72927 -2.666457,-0.49216 -1.306401,0.43139 -3.892198,6.66615 -3.805327,11.95306 0.04861,2.40503 0.3672,5.16214 3.513745,6.31623 2.456166,0.90085 5.415915,-0.73891 8.383766,-3.94433 3.196054,-3.26861 3.306334,-3.05823 3.201724,-1.65388 -0.26691,3.57505 1.11034,5.48757 3.16662,5.78113 2.12633,0.30338 5.00191,-1.42433 7.615966,-4.85634 1.72735,-2.2681 1.99687,-2.38603 1.83663,-0.81245 -0.30499,2.99567 0.87277,5.44265 2.83147,5.62576 2.47156,0.23127 5.52511,-1.13653 9.01122,-6.66839 1.13797,-1.73914 2.14244,-3.07966 1.88219,-3.35828 -0.11568,-0.12414 -0.5369,-0.0747 -0.65293,-0.0387 -0.40889,0.12666 -0.60324,0.14908 -1.84024,1.90964 -0.47117,0.67076 -0.75789,1.04039 -1.80278,2.39954 -3.2598,4.36653 -6.00403,4.80467 -6.82368,2.96731 -0.70146,-1.57268 0.87024,-6.18785 1.79945,-9.14895 0.57524,-1.83321 1.05407,-3.58549 1.39867,-4.9117 0.29429,-1.13275 0.3799,-1.99156 -0.1506,-2.3106 -0.89356,-0.53743 -2.55114,-0.58685 -2.84713,-0.0576 z"
       inkscape:connector-curvature="0"
       inkscape:label="logo"
       sodipodi:nodetypes="csccccccccsccscsccsscccccccccccccccccccccsscsccsssscccccsccccccccccccssssc"
       inkscape:export-xdpi="300.39999"
       inkscape:export-ydpi="300.39999"
       inkscape:export-filename="C:\Users\Admin\Desktop\Strona Piu Mosso\logo\logo, dane dotychczasowe\logo poprawiane\poglądowy plik 2.png" />
    <g
       aria-label="CHÓR KAMERALNY"
       style="font-style:normal;font-variant:normal;font-weight:normal;font-stretch:normal;font-size:13.33828449px;line-height:1.25;font-family:Calibri;-inkscape-font-specification:Calibri;letter-spacing:0px;word-spacing:0px;display:inline;opacity:0.98000004;fill:#abf0d1;fill-opacity:1;stroke:none;stroke-width:0.83364278"
       id="text2561-6-3-6-6-1-0-1">
      <path
         d="m 169.32619,191.06923 q 0,0.17639 -0.0141,0.30339 -0.007,0.11994 -0.0282,0.21166 -0.0212,0.0847 -0.0564,0.14817 -0.0353,0.0635 -0.11289,0.14817 -0.0776,0.0776 -0.30339,0.20461 -0.21872,0.127 -0.54328,0.24694 -0.3175,0.11289 -0.73378,0.1905 -0.40922,0.0776 -0.889,0.0776 -0.93839,0 -1.69334,-0.28927 -0.75494,-0.28928 -1.28411,-0.86078 -0.52917,-0.57856 -0.81139,-1.43934 -0.28222,-0.86078 -0.28222,-2.00378 0,-1.16417 0.31044,-2.06728 0.31045,-0.90312 0.86784,-1.51695 0.55739,-0.61384 1.3335,-0.93134 0.78317,-0.3175 1.72156,-0.3175 0.381,0 0.73378,0.0635 0.35278,0.0635 0.64911,0.16934 0.30339,0.0988 0.54328,0.23283 0.23989,0.13406 0.33161,0.23283 0.0988,0.0917 0.13406,0.15523 0.0353,0.0635 0.0564,0.16227 0.0212,0.0988 0.0282,0.23284 0.0141,0.13405 0.0141,0.33161 0,0.21167 -0.0141,0.35983 -0.0141,0.14817 -0.0494,0.23989 -0.0353,0.0917 -0.0847,0.13406 -0.0494,0.0423 -0.11289,0.0423 -0.10583,0 -0.26811,-0.11994 -0.16228,-0.127 -0.42334,-0.27517 -0.254,-0.15522 -0.61383,-0.27517 -0.35278,-0.127 -0.84667,-0.127 -0.54328,0 -0.97367,0.22578 -0.42333,0.21872 -0.72672,0.635 -0.29634,0.40923 -0.45156,0.99484 -0.15522,0.58561 -0.15522,1.31939 0,0.80434 0.16228,1.397 0.16933,0.58562 0.47272,0.96662 0.31045,0.381 0.74084,0.5715 0.43744,0.18344 0.98072,0.18344 0.49389,0 0.85372,-0.11289 0.35984,-0.11994 0.61384,-0.26105 0.26105,-0.14111 0.42333,-0.254 0.16934,-0.11289 0.26106,-0.11289 0.0705,0 0.11289,0.0282 0.0423,0.0282 0.0706,0.11289 0.0282,0.0847 0.0423,0.23989 0.0141,0.14817 0.0141,0.40217 z"
         style="font-style:normal;font-variant:normal;font-weight:bold;font-stretch:normal;font-size:14.44980907px;font-family:Calibri;-inkscape-font-specification:'Calibri Bold';fill:#abf0d1;fill-opacity:1;stroke-width:0.83364278"
         id="path842"
         inkscape:connector-curvature="0" />
      <path
         d="m 177.78582,192.19812 q 0,0.0705 -0.0494,0.127 -0.0423,0.0564 -0.14817,0.0917 -0.10583,0.0353 -0.28222,0.0564 -0.17639,0.0212 -0.4445,0.0212 -0.27517,0 -0.45861,-0.0212 -0.17639,-0.0212 -0.28223,-0.0564 -0.0988,-0.0353 -0.14816,-0.0917 -0.0423,-0.0565 -0.0423,-0.127 v -3.69007 h -3.41489 v 3.69007 q 0,0.0705 -0.0423,0.127 -0.0423,0.0564 -0.14816,0.0917 -0.10584,0.0353 -0.28223,0.0564 -0.17639,0.0212 -0.45155,0.0212 -0.26812,0 -0.45156,-0.0212 -0.17639,-0.0212 -0.28222,-0.0564 -0.10584,-0.0353 -0.15523,-0.0917 -0.0423,-0.0565 -0.0423,-0.127 v -8.62191 q 0,-0.0706 0.0423,-0.127 0.0494,-0.0564 0.15523,-0.0917 0.10583,-0.0353 0.28222,-0.0565 0.18344,-0.0212 0.45156,-0.0212 0.27516,0 0.45155,0.0212 0.17639,0.0212 0.28223,0.0565 0.10583,0.0353 0.14816,0.0917 0.0423,0.0564 0.0423,0.127 v 3.3514 h 3.41489 v -3.3514 q 0,-0.0706 0.0423,-0.127 0.0494,-0.0564 0.14816,-0.0917 0.10584,-0.0353 0.28223,-0.0565 0.18344,-0.0212 0.45861,-0.0212 0.26811,0 0.4445,0.0212 0.17639,0.0212 0.28222,0.0565 0.10584,0.0353 0.14817,0.0917 0.0494,0.0564 0.0494,0.127 z"
         style="font-style:normal;font-variant:normal;font-weight:bold;font-stretch:normal;font-size:14.44980907px;font-family:Calibri;-inkscape-font-specification:'Calibri Bold';fill:#abf0d1;fill-opacity:1;stroke-width:0.83364278"
         id="path844"
         inkscape:connector-curvature="0" />
      <path
         d="m 187.98817,187.78133 q 0,1.13595 -0.28222,2.032 -0.28222,0.89606 -0.83961,1.52401 -0.55739,0.62089 -1.38289,0.9525 -0.81845,0.32456 -1.89795,0.32456 -1.06539,0 -1.86267,-0.27517 -0.79023,-0.28222 -1.3194,-0.85373 -0.52916,-0.5715 -0.79728,-1.45344 -0.26105,-0.88195 -0.26105,-2.08845 0,-1.10773 0.28222,-1.98967 0.28222,-0.889 0.83961,-1.50989 0.55739,-0.6209 1.37584,-0.95251 0.8255,-0.33161 1.91206,-0.33161 1.03717,0 1.82739,0.27517 0.79728,0.27517 1.32645,0.84667 0.53622,0.5715 0.80434,1.44639 0.27516,0.86783 0.27516,2.05317 z m -1.94733,0.0988 q 0,-0.71967 -0.11289,-1.30528 -0.11289,-0.59267 -0.38806,-1.00895 -0.26811,-0.42333 -0.71967,-0.64911 -0.45155,-0.23284 -1.12889,-0.23284 -0.68439,0 -1.143,0.26106 -0.45861,0.254 -0.74084,0.68439 -0.28222,0.43039 -0.40216,1.00895 -0.11289,0.5715 -0.11289,1.21356 0,0.74789 0.11289,1.34761 0.11288,0.59267 0.381,1.016 0.26811,0.42334 0.71966,0.64911 0.45156,0.21873 1.13595,0.21873 0.68439,0 1.143,-0.254 0.45862,-0.254 0.74084,-0.69145 0.28222,-0.43744 0.39511,-1.016 0.11995,-0.58561 0.11995,-1.24178 z m -1.91206,-7.02029 q 0.0917,-0.10584 0.17638,-0.16934 0.0917,-0.0635 0.21167,-0.0988 0.127,-0.0353 0.30339,-0.0423 0.17639,-0.0141 0.43745,-0.0141 0.32455,0 0.50094,0.0423 0.18345,0.0423 0.24695,0.11289 0.0705,0.0635 0.0353,0.14817 -0.0353,0.0847 -0.13406,0.17639 l -1.56634,1.41111 q -0.0705,0.0635 -0.14816,0.11289 -0.0706,0.0423 -0.17639,0.0776 -0.10584,0.0282 -0.254,0.0423 -0.14817,0.0141 -0.36689,0.0141 -0.23989,0 -0.38806,-0.0212 -0.14111,-0.0212 -0.20461,-0.0635 -0.0565,-0.0494 -0.0423,-0.11994 0.0141,-0.0706 0.0988,-0.16934 z m -2.09551,2.46239 z"
         style="font-style:normal;font-variant:normal;font-weight:bold;font-stretch:normal;font-size:14.44980907px;font-family:Calibri;-inkscape-font-specification:'Calibri Bold';fill:#abf0d1;fill-opacity:1;stroke-width:0.83364278"
         id="path846"
         inkscape:connector-curvature="0" />
      <path
         d="m 196.31375,192.21223 q 0,0.0776 -0.0282,0.13405 -0.0282,0.0494 -0.13405,0.0847 -0.10584,0.0353 -0.31045,0.0494 -0.20461,0.0141 -0.55739,0.0141 -0.29633,0 -0.47272,-0.0141 -0.17639,-0.0141 -0.28222,-0.0494 -0.0988,-0.0423 -0.14111,-0.0988 -0.0423,-0.0635 -0.0706,-0.14816 l -0.81845,-2.03906 q -0.14816,-0.34573 -0.28927,-0.61384 -0.14112,-0.26811 -0.31751,-0.4445 -0.16933,-0.18344 -0.39511,-0.27517 -0.22578,-0.0917 -0.52211,-0.0917 H 191.396 v 3.4784 q 0,0.0705 -0.0494,0.127 -0.0423,0.0564 -0.14816,0.0917 -0.10584,0.0353 -0.28223,0.0564 -0.17638,0.0212 -0.45155,0.0212 -0.26811,0 -0.45156,-0.0212 -0.17639,-0.0212 -0.28222,-0.0564 -0.10583,-0.0353 -0.14817,-0.0917 -0.0423,-0.0565 -0.0423,-0.127 v -8.2903 q 0,-0.31044 0.15522,-0.4445 0.16228,-0.14111 0.39511,-0.14111 h 2.36362 q 0.35983,0 0.59267,0.0141 0.23283,0.0141 0.42333,0.0353 0.55034,0.0776 0.98778,0.26811 0.4445,0.1905 0.74789,0.50095 0.31045,0.30339 0.47272,0.72672 0.16228,0.41628 0.16228,0.95956 0,0.45861 -0.11994,0.83961 -0.11289,0.37395 -0.33867,0.67028 -0.22578,0.29633 -0.55739,0.51506 -0.33161,0.21872 -0.75495,0.35277 0.20462,0.0988 0.38101,0.23989 0.18344,0.14112 0.33866,0.34573 0.16228,0.19755 0.30339,0.45861 0.14111,0.254 0.27517,0.57856 l 0.76906,1.79917 q 0.10583,0.26811 0.14111,0.39511 0.0353,0.11994 0.0353,0.1905 z m -2.39184,-6.19479 q 0,-0.45156 -0.20461,-0.762 -0.20462,-0.31045 -0.67028,-0.43745 -0.14111,-0.0353 -0.32456,-0.0564 -0.17639,-0.0212 -0.49389,-0.0212 h -0.83256 v 2.58939 h 0.94545 q 0.39511,0 0.69145,-0.0917 0.29633,-0.0988 0.49389,-0.26811 0.19755,-0.17639 0.29633,-0.41628 0.0988,-0.23989 0.0988,-0.53622 z"
         style="font-style:normal;font-variant:normal;font-weight:bold;font-stretch:normal;font-size:14.44980907px;font-family:Calibri;-inkscape-font-specification:'Calibri Bold';fill:#abf0d1;fill-opacity:1;stroke-width:0.83364278"
         id="path848"
         inkscape:connector-curvature="0" />
      <path
         d="m 207.60971,192.17695 q 0,0.0776 -0.0423,0.14111 -0.0353,0.0564 -0.14817,0.0988 -0.10583,0.0353 -0.29633,0.0564 -0.1905,0.0212 -0.47978,0.0212 -0.45861,0 -0.66322,-0.0353 -0.19756,-0.0353 -0.28928,-0.10583 -0.0847,-0.0706 -0.13406,-0.16933 l -2.75872,-4.33212 v 4.33212 q 0,0.0776 -0.0423,0.13405 -0.0423,0.0564 -0.14816,0.0988 -0.10584,0.0353 -0.28223,0.0564 -0.17639,0.0212 -0.45155,0.0212 -0.26812,0 -0.45156,-0.0212 -0.17639,-0.0212 -0.28222,-0.0564 -0.10584,-0.0423 -0.15523,-0.0988 -0.0423,-0.0564 -0.0423,-0.13405 v -8.60074 q 0,-0.0776 0.0423,-0.13406 0.0494,-0.0564 0.15523,-0.0917 0.10583,-0.0353 0.28222,-0.0565 0.18344,-0.0212 0.45156,-0.0212 0.27516,0 0.45155,0.0212 0.17639,0.0212 0.28223,0.0565 0.10583,0.0353 0.14816,0.0917 0.0423,0.0564 0.0423,0.13406 v 3.88761 l 2.67406,-3.88056 q 0.0494,-0.0917 0.11994,-0.14817 0.0706,-0.0635 0.18345,-0.0988 0.11289,-0.0353 0.28927,-0.0494 0.17639,-0.0141 0.45156,-0.0141 0.28222,0 0.46567,0.0212 0.18344,0.0212 0.28928,0.0635 0.11289,0.0353 0.15522,0.0917 0.0423,0.0564 0.0423,0.127 0,0.11994 -0.0635,0.24694 -0.0635,0.127 -0.23989,0.40217 l -2.50472,3.28084 2.7305,4.12751 q 0.15522,0.28928 0.18345,0.38805 0.0353,0.0917 0.0353,0.14817 z"
         style="font-style:normal;font-variant:normal;font-weight:bold;font-stretch:normal;font-size:14.44980907px;font-family:Calibri;-inkscape-font-specification:'Calibri Bold';fill:#abf0d1;fill-opacity:1;stroke-width:0.83364278"
         id="path850"
         inkscape:connector-curvature="0" />
      <path
         d="m 216.32335,191.76067 q 0.0847,0.254 0.10583,0.40217 0.0212,0.14817 -0.0564,0.22578 -0.0776,0.0705 -0.27517,0.0847 -0.19756,0.0212 -0.54328,0.0212 -0.35984,0 -0.56445,-0.0141 -0.19755,-0.007 -0.30339,-0.0353 -0.10583,-0.0353 -0.14816,-0.0917 -0.0423,-0.0564 -0.0706,-0.14817 l -0.61383,-1.83445 h -3.42901 l -0.57856,1.78506 q -0.0282,0.0988 -0.0776,0.16934 -0.0423,0.0635 -0.14817,0.10583 -0.0988,0.0353 -0.28927,0.0494 -0.18345,0.0141 -0.48684,0.0141 -0.32456,0 -0.508,-0.0212 -0.18344,-0.0212 -0.254,-0.0988 -0.0706,-0.0847 -0.0494,-0.23284 0.0212,-0.14816 0.10583,-0.39511 l 2.81518,-8.09979 q 0.0423,-0.11995 0.0988,-0.1905 0.0565,-0.0776 0.17639,-0.11289 0.127,-0.0423 0.34573,-0.0494 0.21872,-0.0141 0.57855,-0.0141 0.41628,0 0.66323,0.0141 0.24694,0.007 0.381,0.0494 0.14111,0.0353 0.19755,0.11289 0.0635,0.0776 0.10584,0.21166 z m -4.19101,-6.69573 h -0.007 l -1.29117,3.88056 h 2.5894 z"
         style="font-style:normal;font-variant:normal;font-weight:bold;font-stretch:normal;font-size:14.44980907px;font-family:Calibri;-inkscape-font-specification:'Calibri Bold';fill:#abf0d1;fill-opacity:1;stroke-width:0.83364278"
         id="path852"
         inkscape:connector-curvature="0" />
      <path
         d="m 228.23315,192.19812 q 0,0.0705 -0.0423,0.127 -0.0353,0.0564 -0.14111,0.0917 -0.0988,0.0353 -0.26812,0.0564 -0.16933,0.0212 -0.43039,0.0212 -0.254,0 -0.42333,-0.0212 -0.16933,-0.0212 -0.26811,-0.0564 -0.0988,-0.0353 -0.14111,-0.0917 -0.0423,-0.0565 -0.0423,-0.127 v -7.42952 h -0.0141 l -2.64584,7.42246 q -0.0282,0.0917 -0.0917,0.15522 -0.0635,0.0564 -0.17639,0.0917 -0.10583,0.0353 -0.27517,0.0423 -0.16933,0.0141 -0.40922,0.0141 -0.23989,0 -0.40922,-0.0212 -0.16934,-0.0141 -0.28222,-0.0494 -0.10584,-0.0423 -0.16934,-0.0988 -0.0635,-0.0565 -0.0847,-0.13406 l -2.55411,-7.42246 h -0.0141 v 7.42952 q 0,0.0705 -0.0423,0.127 -0.0353,0.0564 -0.14111,0.0917 -0.10583,0.0353 -0.27516,0.0564 -0.16228,0.0212 -0.42334,0.0212 -0.254,0 -0.42333,-0.0212 -0.16934,-0.0212 -0.27517,-0.0564 -0.0988,-0.0353 -0.14111,-0.0917 -0.0353,-0.0565 -0.0353,-0.127 v -8.13508 q 0,-0.35983 0.1905,-0.55033 0.1905,-0.1905 0.508,-0.1905 h 1.21356 q 0.32456,0 0.55739,0.0564 0.23283,0.0494 0.40217,0.17639 0.16933,0.11995 0.28222,0.32456 0.11289,0.19756 0.19756,0.49389 l 1.97556,5.43984 h 0.0282 l 2.04611,-5.42573 q 0.0917,-0.29633 0.19756,-0.50095 0.11289,-0.20461 0.254,-0.33161 0.14817,-0.127 0.34572,-0.17639 0.19756,-0.0564 0.45862,-0.0564 h 1.24883 q 0.1905,0 0.32456,0.0494 0.14111,0.0494 0.22578,0.14817 0.0917,0.0917 0.13405,0.23283 0.0494,0.13405 0.0494,0.31044 z"
         style="font-style:normal;font-variant:normal;font-weight:bold;font-stretch:normal;font-size:14.44980907px;font-family:Calibri;-inkscape-font-specification:'Calibri Bold';fill:#abf0d1;fill-opacity:1;stroke-width:0.83364278"
         id="path854"
         inkscape:connector-curvature="0" />
      <path
         d="m 235.64855,191.72539 q 0,0.20462 -0.0212,0.34573 -0.0141,0.13405 -0.0494,0.21872 -0.0353,0.0847 -0.0917,0.127 -0.0494,0.0353 -0.11289,0.0353 h -4.58612 q -0.23284,0 -0.39512,-0.13406 -0.15522,-0.14111 -0.15522,-0.45155 v -7.95869 q 0,-0.31044 0.15522,-0.4445 0.16228,-0.14111 0.39512,-0.14111 h 4.55789 q 0.0635,0 0.11289,0.0353 0.0494,0.0353 0.0847,0.127 0.0353,0.0847 0.0494,0.22578 0.0212,0.13405 0.0212,0.34572 0,0.19755 -0.0212,0.33867 -0.0141,0.13405 -0.0494,0.21872 -0.0353,0.0847 -0.0847,0.127 -0.0494,0.0353 -0.11289,0.0353 h -3.25967 v 2.22956 h 2.75873 q 0.0635,0 0.11289,0.0423 0.0564,0.0353 0.0917,0.11995 0.0353,0.0776 0.0494,0.21872 0.0212,0.13405 0.0212,0.33161 0,0.20461 -0.0212,0.33867 -0.0141,0.13405 -0.0494,0.21872 -0.0353,0.0776 -0.0917,0.11289 -0.0494,0.0353 -0.11289,0.0353 h -2.75873 v 2.57528 h 3.2879 q 0.0635,0 0.11289,0.0423 0.0564,0.0353 0.0917,0.11995 0.0353,0.0847 0.0494,0.22578 0.0212,0.13405 0.0212,0.33866 z"
         style="font-style:normal;font-variant:normal;font-weight:bold;font-stretch:normal;font-size:14.44980907px;font-family:Calibri;-inkscape-font-specification:'Calibri Bold';fill:#abf0d1;fill-opacity:1;stroke-width:0.83364278"
         id="path856"
         inkscape:connector-curvature="0" />
      <path
         d="m 244.06585,192.21223 q 0,0.0776 -0.0282,0.13405 -0.0282,0.0494 -0.13406,0.0847 -0.10583,0.0353 -0.31044,0.0494 -0.20461,0.0141 -0.55739,0.0141 -0.29634,0 -0.47272,-0.0141 -0.17639,-0.0141 -0.28223,-0.0494 -0.0988,-0.0423 -0.14111,-0.0988 -0.0423,-0.0635 -0.0705,-0.14816 l -0.81845,-2.03906 q -0.14817,-0.34573 -0.28928,-0.61384 -0.14111,-0.26811 -0.3175,-0.4445 -0.16933,-0.18344 -0.39511,-0.27517 -0.22578,-0.0917 -0.52211,-0.0917 h -0.57856 v 3.4784 q 0,0.0705 -0.0494,0.127 -0.0423,0.0564 -0.14817,0.0917 -0.10583,0.0353 -0.28222,0.0564 -0.17639,0.0212 -0.45156,0.0212 -0.26811,0 -0.45155,-0.0212 -0.17639,-0.0212 -0.28223,-0.0564 -0.10583,-0.0353 -0.14816,-0.0917 -0.0423,-0.0565 -0.0423,-0.127 v -8.2903 q 0,-0.31044 0.15523,-0.4445 0.16227,-0.14111 0.39511,-0.14111 h 2.36361 q 0.35984,0 0.59267,0.0141 0.23284,0.0141 0.42334,0.0353 0.55033,0.0776 0.98778,0.26811 0.4445,0.1905 0.74789,0.50095 0.31044,0.30339 0.47272,0.72672 0.16228,0.41628 0.16228,0.95956 0,0.45861 -0.11995,0.83961 -0.11289,0.37395 -0.33866,0.67028 -0.22578,0.29633 -0.55739,0.51506 -0.33162,0.21872 -0.75495,0.35277 0.20461,0.0988 0.381,0.23989 0.18345,0.14112 0.33867,0.34573 0.16228,0.19755 0.30339,0.45861 0.14111,0.254 0.27517,0.57856 l 0.76905,1.79917 q 0.10584,0.26811 0.14111,0.39511 0.0353,0.11994 0.0353,0.1905 z m -2.39184,-6.19479 q 0,-0.45156 -0.20461,-0.762 -0.20461,-0.31045 -0.67028,-0.43745 -0.14111,-0.0353 -0.32455,-0.0564 -0.17639,-0.0212 -0.49389,-0.0212 h -0.83256 v 2.58939 h 0.94545 q 0.39511,0 0.69144,-0.0917 0.29634,-0.0988 0.49389,-0.26811 0.19756,-0.17639 0.29634,-0.41628 0.0988,-0.23989 0.0988,-0.53622 z"
         style="font-style:normal;font-variant:normal;font-weight:bold;font-stretch:normal;font-size:14.44980907px;font-family:Calibri;-inkscape-font-specification:'Calibri Bold';fill:#abf0d1;fill-opacity:1;stroke-width:0.83364278"
         id="path858"
         inkscape:connector-curvature="0" />
      <path
         d="m 252.89942,191.76067 q 0.0847,0.254 0.10584,0.40217 0.0212,0.14817 -0.0564,0.22578 -0.0776,0.0705 -0.27517,0.0847 -0.19755,0.0212 -0.54327,0.0212 -0.35984,0 -0.56445,-0.0141 -0.19756,-0.007 -0.30339,-0.0353 -0.10583,-0.0353 -0.14817,-0.0917 -0.0423,-0.0564 -0.0705,-0.14817 l -0.61384,-1.83445 h -3.429 l -0.57856,1.78506 q -0.0282,0.0988 -0.0776,0.16934 -0.0423,0.0635 -0.14817,0.10583 -0.0988,0.0353 -0.28928,0.0494 -0.18344,0.0141 -0.48683,0.0141 -0.32456,0 -0.508,-0.0212 -0.18345,-0.0212 -0.254,-0.0988 -0.0706,-0.0847 -0.0494,-0.23284 0.0212,-0.14816 0.10583,-0.39511 l 2.81517,-8.09979 q 0.0423,-0.11995 0.0988,-0.1905 0.0565,-0.0776 0.17639,-0.11289 0.127,-0.0423 0.34572,-0.0494 0.21873,-0.0141 0.57856,-0.0141 0.41628,0 0.66322,0.0141 0.24695,0.007 0.381,0.0494 0.14112,0.0353 0.19756,0.11289 0.0635,0.0776 0.10583,0.21166 z m -4.19101,-6.69573 h -0.007 l -1.29117,3.88056 h 2.58939 z"
         style="font-style:normal;font-variant:normal;font-weight:bold;font-stretch:normal;font-size:14.44980907px;font-family:Calibri;-inkscape-font-specification:'Calibri Bold';fill:#abf0d1;fill-opacity:1;stroke-width:0.83364278"
         id="path860"
         inkscape:connector-curvature="0" />
      <path
         d="m 259.18594,191.67601 q 0,0.21166 -0.0212,0.35983 -0.0141,0.14111 -0.0494,0.23989 -0.0353,0.0917 -0.0917,0.13405 -0.0494,0.0423 -0.11995,0.0423 h -4.18395 q -0.23283,0 -0.39511,-0.13406 -0.15522,-0.14111 -0.15522,-0.45155 v -8.2903 q 0,-0.0706 0.0423,-0.127 0.0494,-0.0564 0.15522,-0.0917 0.10584,-0.0353 0.28223,-0.0565 0.18344,-0.0212 0.45155,-0.0212 0.27517,0 0.45156,0.0212 0.17639,0.0212 0.28222,0.0565 0.10583,0.0353 0.14817,0.0917 0.0494,0.0564 0.0494,0.127 v 7.34485 h 2.87161 q 0.0706,0 0.11995,0.0423 0.0564,0.0353 0.0917,0.127 0.0353,0.0847 0.0494,0.23284 0.0212,0.14111 0.0212,0.35278 z"
         style="font-style:normal;font-variant:normal;font-weight:bold;font-stretch:normal;font-size:14.44980907px;font-family:Calibri;-inkscape-font-specification:'Calibri Bold';fill:#abf0d1;fill-opacity:1;stroke-width:0.83364278"
         id="path862"
         inkscape:connector-curvature="0" />
      <path
         d="m 267.82196,191.80301 q 0,0.16227 -0.0564,0.28927 -0.0564,0.127 -0.15522,0.21167 -0.0917,0.0847 -0.22578,0.127 -0.127,0.0353 -0.26105,0.0353 h -0.79023 q -0.24694,0 -0.43039,-0.0494 -0.17639,-0.0494 -0.33161,-0.17639 -0.14817,-0.13406 -0.28928,-0.35278 -0.14111,-0.22578 -0.3175,-0.57855 l -2.27189,-4.26862 q -0.19756,-0.38101 -0.40217,-0.81845 -0.20461,-0.4445 -0.36689,-0.86078 h -0.0141 q 0.0282,0.508 0.0423,1.016 0.0141,0.50095 0.0141,1.03717 v 4.77662 q 0,0.0706 -0.0423,0.127 -0.0353,0.0564 -0.13406,0.0988 -0.0917,0.0353 -0.254,0.0564 -0.16227,0.0212 -0.41627,0.0212 -0.24695,0 -0.40923,-0.0212 -0.16228,-0.0212 -0.254,-0.0564 -0.0917,-0.0423 -0.127,-0.0988 -0.0353,-0.0564 -0.0353,-0.127 v -8.20563 q 0,-0.33161 0.1905,-0.49389 0.19756,-0.16933 0.47978,-0.16933 h 0.99484 q 0.26811,0 0.45155,0.0494 0.18345,0.0423 0.32456,0.14817 0.14817,0.10583 0.27517,0.29633 0.127,0.18344 0.26105,0.45861 l 1.77801,3.33729 q 0.15522,0.30339 0.30339,0.59972 0.15522,0.28928 0.29633,0.58561 0.14111,0.28928 0.27517,0.5715 0.13405,0.28223 0.26106,0.56445 h 0.007 q -0.0212,-0.49389 -0.0353,-1.03011 -0.007,-0.53623 -0.007,-1.02306 v -4.28273 q 0,-0.0706 0.0423,-0.127 0.0423,-0.0565 0.14111,-0.0988 0.0988,-0.0423 0.26106,-0.0565 0.16228,-0.0212 0.41628,-0.0212 0.23989,0 0.40216,0.0212 0.16228,0.0141 0.24695,0.0565 0.0917,0.0423 0.127,0.0988 0.0353,0.0564 0.0353,0.127 z"
         style="font-style:normal;font-variant:normal;font-weight:bold;font-stretch:normal;font-size:14.44980907px;font-family:Calibri;-inkscape-font-specification:'Calibri Bold';fill:#abf0d1;fill-opacity:1;stroke-width:0.83364278"
         id="path864"
         inkscape:connector-curvature="0" />
      <path
         d="m 273.49464,188.98783 v 3.21029 q 0,0.0705 -0.0494,0.127 -0.0423,0.0564 -0.14817,0.0917 -0.10583,0.0353 -0.28928,0.0564 -0.17639,0.0212 -0.4445,0.0212 -0.27517,0 -0.45155,-0.0212 -0.17639,-0.0212 -0.28928,-0.0564 -0.10584,-0.0353 -0.14817,-0.0917 -0.0423,-0.0565 -0.0423,-0.127 v -3.21029 l -2.49768,-4.97417 q -0.13405,-0.26106 -0.17638,-0.40217 -0.0353,-0.14817 0.0423,-0.21873 0.0847,-0.0776 0.30339,-0.0917 0.21872,-0.0212 0.60678,-0.0212 0.32455,0 0.51505,0.0141 0.19756,0.0141 0.31045,0.0564 0.11289,0.0353 0.16228,0.0988 0.0564,0.0635 0.10583,0.16228 l 1.016,2.24367 q 0.14817,0.32456 0.28928,0.68439 0.14817,0.35983 0.29634,0.75495 h 0.0141 q 0.13405,-0.38101 0.27516,-0.74084 0.14112,-0.35983 0.27517,-0.68439 l 1.00189,-2.22956 q 0.0353,-0.11289 0.0847,-0.17639 0.0564,-0.0706 0.16228,-0.11289 0.10583,-0.0423 0.28928,-0.0564 0.18344,-0.0141 0.48683,-0.0141 0.40217,0 0.62089,0.0212 0.22578,0.0141 0.30339,0.0917 0.0847,0.0706 0.0423,0.21873 -0.0423,0.14816 -0.16933,0.40217 z"
         style="font-style:normal;font-variant:normal;font-weight:bold;font-stretch:normal;font-size:14.44980907px;font-family:Calibri;-inkscape-font-specification:'Calibri Bold';fill:#abf0d1;fill-opacity:1;stroke-width:0.83364278"
         id="path866"
         inkscape:connector-curvature="0" />
    </g>
    <g
       aria-label="Piú Mosso"
       transform="skewX(-4.5034213)"
       style="font-style:normal;font-variant:normal;font-weight:normal;font-stretch:normal;font-size:13.33828449px;line-height:1.25;font-family:Calibri;-inkscape-font-specification:Calibri;letter-spacing:0px;word-spacing:0px;display:inline;opacity:0.98000004;fill:#abf0d1;fill-opacity:1;stroke:none;stroke-width:0.20480044;stroke-miterlimit:4;stroke-dasharray:none;stroke-opacity:1"
       id="text1152-4-0-12-8-4-7-2">
      <path
         d="m 177.09966,214.87228 q -2.72101,-0.73627 -2.72101,-3.10515 0,-0.92834 0.48018,-1.40852 0.51219,-0.51219 0.86432,-0.51219 0.57622,0 0.67225,0.35213 l 0.032,0.12805 q -0.83231,0 -1.15242,0.92834 -0.096,0.32012 -0.096,0.64024 0,0.83231 0.64024,1.37651 0.67225,0.5442 1.44053,0.76829 1.08841,-6.46641 1.40853,-7.8109 1.21645,-4.92984 3.45728,-5.44203 0.28811,-0.064 0.57621,-0.064 0.48018,0 0.64024,0.38414 l 0.032,0.16006 q -1.3445,0 -2.08077,1.47255 -0.70426,1.47255 -0.99237,3.26521 -0.25609,1.79267 -0.38414,2.81705 -0.12805,1.02438 -0.32012,2.72101 -0.16006,1.66462 -0.28811,2.72101 3.93747,-0.12805 6.49842,-3.4893 2.14479,-2.81704 2.14479,-6.11427 0,-3.71338 -2.62497,-5.34598 -1.53657,-0.92835 -3.74539,-0.92835 -6.21031,0 -9.44351,4.41764 -2.24083,3.00912 -2.24083,6.7225 0,3.64935 1.92071,5.15391 0.86432,0.70426 1.98474,0.70426 -0.28811,0.73628 -0.99237,0.73628 -2.689,0 -3.80941,-2.75302 -0.60823,-1.47255 -0.60823,-3.16918 0,-1.69663 0.57621,-3.58533 1.37651,-4.48167 5.15392,-6.94658 3.16917,-2.08077 7.45877,-2.08077 5.41001,0 7.39474,3.48929 0.92835,1.6006 0.92835,3.26521 0,1.66462 -0.5442,3.29723 -1.21646,3.64935 -4.41764,5.76214 -2.59297,1.66462 -5.73013,1.69663 -0.96036,6.78652 -3.16918,9.50753 -0.86432,1.0884 -2.20882,1.76065 -1.3445,0.67225 -2.97711,0.67225 -1.6326,0 -2.78503,-0.57621 -1.15243,-0.57622 -1.63261,-1.47255 -0.73627,-1.31249 -0.73627,-2.40089 0,-1.0884 0.32012,-2.01675 0.32012,-0.96036 0.92834,-1.85669 0.60823,-0.92834 1.6006,-1.50456 0.99237,-0.57621 2.1448,-0.57621 0.67225,0 0.86432,0.44816 l 0.096,0.16006 q -2.78503,0 -4.22557,2.36888 -0.86432,1.37651 -0.86432,2.75303 0,0.67225 0.19207,1.31248 0.67225,2.49693 3.4893,2.49693 1.24846,0 2.27284,-0.64024 1.02438,-0.64023 1.69663,-1.6326 0.70426,-0.96036 1.28048,-2.56095 0.86432,-2.4009 1.60059,-6.46641 z"
         style="font-style:normal;font-variant:normal;font-weight:normal;font-stretch:normal;font-size:40.01485825px;font-family:'Rouge Script';-inkscape-font-specification:'Rouge Script';fill:#abf0d1;fill-opacity:1;stroke:none;stroke-width:0.20480044;stroke-miterlimit:4;stroke-dasharray:none;stroke-opacity:1"
         id="path869"
         inkscape:connector-curvature="0" />
      <path
         d="m 193.45711,204.53245 q 0.73627,0 0.73627,0.99236 0,0.99237 -0.96035,1.6006 -0.48018,0.32012 -0.83231,0.32012 -0.51219,0 -0.60823,-0.32012 l -0.032,-0.096 q 0.28811,0 0.41616,-0.60822 0.12804,-0.64024 0.38414,-1.24847 0.28811,-0.64023 0.89633,-0.64023 z m -2.04876,18.40683 q 0.83231,0 2.33687,-2.20882 1.50456,-2.20882 2.59296,-4.41764 l 1.08841,-2.20882 h 0.86432 q -0.19208,0.38414 -0.51219,1.05639 -0.28811,0.64024 -1.18444,2.33687 -0.89634,1.66462 -1.72865,2.94509 -0.80029,1.28048 -1.82467,2.33687 -0.99237,1.02438 -1.72865,1.02438 -2.36887,0 -2.36887,-3.07314 0,-2.30486 1.31248,-7.49078 0.12805,-0.5442 0.19207,-0.83231 0.096,-0.28811 0.19208,-0.73627 0.096,-0.48018 0.19207,-0.86432 0.16006,-0.67225 0.57621,-0.67225 0.57621,0 0.83231,0.8323 0.12805,0.38415 0.12805,0.92835 0,0.5442 -0.12805,1.15243 -0.12805,0.57621 -0.41615,1.72864 -0.28811,1.15243 -0.44817,1.8887 -0.16006,0.73627 -0.35213,1.79267 -0.35213,1.76065 -0.35213,3.13716 0,1.3445 0.73627,1.3445 z"
         style="font-style:normal;font-variant:normal;font-weight:normal;font-stretch:normal;font-size:40.01485825px;font-family:'Rouge Script';-inkscape-font-specification:'Rouge Script';fill:#abf0d1;fill-opacity:1;stroke:none;stroke-width:0.20480044;stroke-miterlimit:4;stroke-dasharray:none;stroke-opacity:1"
         id="path871"
         inkscape:connector-curvature="0" />
      <path
         d="m 206.91786,203.95623 q -0.96036,1.18444 -2.17681,2.30486 -1.18444,1.12041 -1.53657,1.12041 -0.32012,0 -0.32012,-0.35213 0,-0.35213 0.73627,-1.50456 0.76829,-1.18444 1.82468,-2.36888 0.38414,-0.48017 0.73628,-0.48017 0.35213,0 0.67225,0.16006 0.32011,0.12804 0.32011,0.44816 0,0.28811 -0.25609,0.67225 z m -0.60823,18.98305 q 0.83231,0 2.33687,-2.20882 1.50456,-2.20882 2.59296,-4.41764 l 1.08841,-2.20882 h 0.86432 q -0.19207,0.38414 -0.51219,1.05639 -0.28811,0.64024 -1.18444,2.33687 -0.89633,1.66462 -1.72864,2.94509 -0.8003,1.28048 -1.82468,2.33687 -0.99237,1.02438 -1.8887,1.02438 -0.89633,0 -1.47255,-0.5442 -0.70426,-0.70426 -0.70426,-2.46492 0,-1.76065 0.60823,-4.64172 h -0.22409 q -3.68136,7.55481 -6.11427,7.55481 -2.14479,0 -2.14479,-2.78504 0,-2.01675 1.72864,-8.03498 0.38414,-1.37651 0.57621,-2.04876 0.19207,-0.70426 0.60823,-0.70426 0.57621,0 0.83231,0.8323 0.12804,0.35214 0.12804,0.89634 0,0.51219 -0.16006,1.15243 -0.16005,0.60822 -0.67225,2.36887 -1.37651,4.73776 -1.37651,6.37037 0,1.05639 0.64024,1.05639 0.8003,0 1.8887,-1.44053 1.15243,-1.50456 1.8887,-2.91308 0.73628,-1.40853 1.18444,-2.30486 0.44817,-0.89633 0.89634,-1.85669 0.44816,-0.99237 0.70426,-1.63261 0.28811,-0.64023 0.5442,-1.21645 0.2561,-0.60822 0.2561,-0.64023 0.2881,-0.67225 0.64023,-0.67225 0.57622,0 0.83231,0.8323 0.12805,0.38415 0.12805,0.92835 0,0.5442 -0.12805,1.15243 -0.12805,0.57621 -0.41615,1.72864 -0.28811,1.15243 -0.44817,1.8887 -0.16006,0.73627 -0.38414,1.79267 -0.32012,1.76065 -0.32012,3.13716 0,1.3445 0.73627,1.3445 z"
         style="font-style:normal;font-variant:normal;font-weight:normal;font-stretch:normal;font-size:40.01485825px;font-family:'Rouge Script';-inkscape-font-specification:'Rouge Script';fill:#abf0d1;fill-opacity:1;stroke:none;stroke-width:0.20480044;stroke-miterlimit:4;stroke-dasharray:none;stroke-opacity:1"
         id="path873"
         inkscape:connector-curvature="0" />
      <path
         d="m 249.32085,201.23522 -1.95272,-0.60822 q -1.53657,2.36887 -3.26521,8.51516 -0.70427,2.4329 -1.56859,5.15391 -0.83231,2.689 -1.95272,5.05788 -1.08841,2.33687 -2.52894,4.25758 -1.40852,1.92071 -3.52131,3.04113 -2.11278,1.12041 -4.73776,1.12041 -4.70574,0 -6.85054,-3.36124 -1.18444,-1.8887 -1.18444,-4.06551 0,-0.89634 0.19207,-1.82468 0.67225,-3.10515 3.04113,-4.41764 1.24846,-0.70426 2.78503,-0.70426 3.29723,0 4.44966,2.56095 0.48017,1.05639 0.48017,2.17681 0,1.0884 -0.44816,2.20882 -1.08841,2.689 -3.55332,2.689 -0.38414,0 -0.64024,-0.16006 -0.25609,-0.19208 -0.38414,-0.54421 0.86432,0 1.6326,-0.44816 1.28048,-0.76829 1.98474,-2.78504 0.22408,-0.67225 0.22408,-1.0884 0,-0.44817 -0.064,-0.99237 -0.064,-0.57621 -0.41615,-1.31249 -0.35213,-0.73627 -1.21646,-1.18444 -0.86432,-0.44816 -2.04876,-0.44816 -3.04113,0 -4.48166,2.689 -0.83231,1.53657 -0.83231,2.91308 0,1.37651 0.28811,2.46491 0.83231,3.04113 3.48929,4.19356 1.24847,0.5442 3.16918,0.5442 1.92071,0 3.87344,-1.0884 1.98473,-1.05639 3.39326,-2.88107 1.44053,-1.85669 2.59296,-4.12954 1.15243,-2.27284 2.08077,-4.89781 0.96036,-2.65699 1.72865,-5.02587 2.04876,-6.08226 3.55331,-8.48315 -4.83379,-1.50456 -7.0106,-1.50456 -4.12953,0 -6.14628,3.13717 -1.15243,1.79266 -1.15243,3.68136 0,0.54421 0.12805,1.12042 0.35213,2.11278 1.8887,2.52894 0.28811,0.064 0.57621,0.064 -0.19207,0.67225 -1.05639,0.67225 -1.95272,0 -2.75302,-2.08077 -0.38414,-0.99237 -0.38414,-2.20882 0,-1.21645 0.64023,-2.72101 1.3445,-3.2332 4.73776,-4.41764 1.6006,-0.5442 3.64936,-0.5442 2.08077,0 7.29871,1.66461 1.56858,-2.24083 3.58533,-2.24083 0.2561,0 0.38414,0.16006 0.12805,0.16006 0.16006,0.44817 -1.8887,0 -3.36125,1.8887 1.44054,0.44817 1.85669,0.60823 1.3445,-2.33687 2.52894,-2.33687 0.54421,0 0.64024,0.32012 l 0.032,0.096 q -0.89633,0 -1.8887,2.36888 l 4.5777,1.47255 q 2.1448,-4.0335 4.48167,-4.0335 0.32011,0 0.51219,0.16006 0.19207,0.16006 0.25609,0.48018 -2.40089,0 -4.41764,3.64935 1.72864,0.44817 2.1448,0.51219 1.8887,-3.74539 3.39326,-3.74539 0.5442,0 0.64023,0.32012 l 0.032,0.096 q -1.0564,0 -2.56095,3.55332 0.22408,0.032 0.60822,0.032 3.16918,0 4.44965,-1.8887 0.54421,-0.73628 0.54421,-1.24847 0,-1.44053 -1.28048,-1.44053 0.28811,-0.44817 0.92834,-0.44817 1.24847,0 1.63261,1.24847 0.096,0.38414 0.096,0.73627 0,1.05639 -0.89634,2.08077 -1.56858,1.72864 -4.83379,1.72864 -0.76829,0 -1.50456,-0.12804 -1.40852,3.61734 -2.4329,8.3551 -0.99237,4.73776 -0.99237,8.45114 0,3.71338 1.50456,3.71338 -0.32012,0.64023 -0.92835,0.64023 -2.49692,0 -2.49692,-5.47403 0,-3.2332 1.02438,-7.68285 1.02438,-4.48167 2.78503,-8.29108 -0.83231,-0.16006 -2.17681,-0.5442 -1.40852,2.75302 -2.9771,8.06699 -1.53657,5.28196 -2.75303,8.67522 -1.18444,3.39326 -2.40089,3.39326 -2.4329,0 -2.4329,-5.82616 0,-3.55332 1.02438,-8.32309 1.05639,-4.76977 2.78503,-8.13102 z m -1.66461,17.7666 q 0,2.689 0.64023,2.689 0.67225,0 1.63261,-3.07314 0.99237,-3.07315 2.4329,-7.87493 1.47255,-4.80178 2.88107,-7.58682 -2.88107,-0.89633 -4.51367,-1.44053 -1.40853,3.7774 -2.33687,9.76362 -0.73627,4.8338 -0.73627,7.5228 z"
         style="font-style:normal;font-variant:normal;font-weight:normal;font-stretch:normal;font-size:40.01485825px;font-family:'Rouge Script';-inkscape-font-specification:'Rouge Script';fill:#abf0d1;fill-opacity:1;stroke:none;stroke-width:0.20480044;stroke-miterlimit:4;stroke-dasharray:none;stroke-opacity:1"
         id="path875"
         inkscape:connector-curvature="0" />
      <path
         d="m 263.45135,219.482 q 0,3.36124 1.79267,3.36124 1.21645,0 2.27284,-1.50455 2.01675,-2.81705 2.46492,-7.42676 -1.12042,-0.48018 -1.56858,-1.56858 -0.28811,-0.67225 -0.28811,-1.12042 0,-0.48018 0.12805,-0.83231 0.2881,-0.86432 1.05639,-0.86432 0.76828,0 1.15243,0.99237 0.41615,0.96035 0.41615,2.46491 0,0.096 0,0.22409 0.38414,0.12804 1.12042,0.12804 0.76828,0 1.3445,-0.60822 0.57621,-0.60823 0.57621,-1.12042 0,-0.12805 0.16006,-0.16006 0.16006,-0.064 0.28811,0 0.16006,0.064 0.16006,0.19207 0,0.92835 -0.8003,1.76066 -0.76829,0.83231 -2.08077,0.83231 -0.32012,0 -0.83231,-0.064 -0.19207,2.17681 -0.92835,4.32161 -0.70426,2.11278 -1.98473,3.68136 -1.28048,1.53658 -2.75303,1.53658 -2.78503,0 -3.42527,-2.97711 -0.16006,-0.86432 -0.16006,-1.76065 0,-2.01675 0.92835,-4.32161 1.21645,-3.00912 3.00911,-3.74539 0.92835,-0.32012 1.28048,-0.096 0.35213,0.22408 0.44817,0.51219 -1.47255,0 -2.62498,2.75302 -1.15243,2.75302 -1.15243,5.41001 z"
         style="font-style:normal;font-variant:normal;font-weight:normal;font-stretch:normal;font-size:40.01485825px;font-family:'Rouge Script';-inkscape-font-specification:'Rouge Script';fill:#abf0d1;fill-opacity:1;stroke:none;stroke-width:0.20480044;stroke-miterlimit:4;stroke-dasharray:none;stroke-opacity:1"
         id="path877"
         inkscape:connector-curvature="0" />
      <path
         d="m 279.23534,206.61322 h 0.064 q 0.28811,0.032 0.44817,0.25609 0.16006,0.22409 0.16006,0.48018 0,0.22408 -0.44817,0.99237 -0.41615,0.76829 -0.41615,1.24846 0,0.44817 0.12804,0.86432 0.12805,0.38415 0.8003,1.92072 1.47255,3.36125 1.47255,6.01823 0,2.62498 -1.44054,4.35362 -1.40852,1.72864 -3.39326,1.72864 -1.95272,0 -1.95272,-2.36888 0,-2.40089 1.69663,-5.1219 0.99237,-1.56858 2.14479,-2.36888 0.32012,-0.22408 0.41616,0.096 0.12805,0.32011 -0.12805,0.51219 -1.85669,1.34449 -2.88107,4.25758 -0.92834,2.62497 -0.19207,3.64935 0.25609,0.38414 0.73627,0.38414 1.40853,0 2.20882,-1.8887 0.8003,-1.8887 0.8003,-4.70574 0,-2.43291 -0.57621,-4.51368 -0.57622,-2.08077 -0.64024,-2.40089 -0.96036,1.82468 -2.08077,4.09752 h -0.86433 q 1.82468,-3.61734 2.81705,-5.44202 0.12805,-2.04876 1.12042,-2.04876 z"
         style="font-style:normal;font-variant:normal;font-weight:normal;font-stretch:normal;font-size:40.01485825px;font-family:'Rouge Script';-inkscape-font-specification:'Rouge Script';fill:#abf0d1;fill-opacity:1;stroke:none;stroke-width:0.20480044;stroke-miterlimit:4;stroke-dasharray:none;stroke-opacity:1"
         id="path879"
         inkscape:connector-curvature="0" />
      <path
         d="m 289.39536,206.61322 h 0.064 q 0.2881,0.032 0.44816,0.25609 0.16006,0.22409 0.16006,0.48018 0,0.22408 -0.44816,0.99237 -0.41616,0.76829 -0.41616,1.24846 0,0.44817 0.12805,0.86432 0.12805,0.38415 0.8003,1.92072 1.47254,3.36125 1.47254,6.01823 0,2.62498 -1.44053,4.35362 -1.40852,1.72864 -3.39326,1.72864 -1.95273,0 -1.95273,-2.36888 0,-2.40089 1.69663,-5.1219 0.99237,-1.56858 2.1448,-2.36888 0.32012,-0.22408 0.41615,0.096 0.12805,0.32011 -0.12804,0.51219 -1.85669,1.34449 -2.88107,4.25758 -0.92835,2.62497 -0.19207,3.64935 0.25609,0.38414 0.73627,0.38414 1.40852,0 2.20882,-1.8887 0.8003,-1.8887 0.8003,-4.70574 0,-2.43291 -0.57622,-4.51368 -0.57621,-2.08077 -0.64024,-2.40089 -0.96035,1.82468 -2.08077,4.09752 h -0.86432 q 1.82468,-3.61734 2.81705,-5.44202 0.12804,-2.04876 1.12041,-2.04876 z"
         style="font-style:normal;font-variant:normal;font-weight:normal;font-stretch:normal;font-size:40.01485825px;font-family:'Rouge Script';-inkscape-font-specification:'Rouge Script';fill:#abf0d1;fill-opacity:1;stroke:none;stroke-width:0.20480044;stroke-miterlimit:4;stroke-dasharray:none;stroke-opacity:1"
         id="path881"
         inkscape:connector-curvature="0" />
      <path
         d="m 296.35419,219.482 q 0,3.36124 1.79267,3.36124 1.21645,0 2.27284,-1.50455 2.01675,-2.81705 2.46492,-7.42676 -1.12042,-0.48018 -1.56858,-1.56858 -0.28811,-0.67225 -0.28811,-1.12042 0,-0.48018 0.12805,-0.83231 0.2881,-0.86432 1.05639,-0.86432 0.76828,0 1.15243,0.99237 0.41615,0.96035 0.41615,2.46491 0,0.096 0,0.22409 0.38414,0.12804 1.12042,0.12804 0.76828,0 1.3445,-0.60822 0.57621,-0.60823 0.57621,-1.12042 0,-0.12805 0.16006,-0.16006 0.16006,-0.064 0.28811,0 0.16006,0.064 0.16006,0.19207 0,0.92835 -0.8003,1.76066 -0.76829,0.83231 -2.08077,0.83231 -0.32012,0 -0.83231,-0.064 -0.19207,2.17681 -0.92835,4.32161 -0.70426,2.11278 -1.98473,3.68136 -1.28048,1.53658 -2.75303,1.53658 -2.78503,0 -3.42527,-2.97711 -0.16006,-0.86432 -0.16006,-1.76065 0,-2.01675 0.92835,-4.32161 1.21645,-3.00912 3.00911,-3.74539 0.92835,-0.32012 1.28048,-0.096 0.35213,0.22408 0.44817,0.51219 -1.47255,0 -2.62498,2.75302 -1.15243,2.75302 -1.15243,5.41001 z"
         style="font-style:normal;font-variant:normal;font-weight:normal;font-stretch:normal;font-size:40.01485825px;font-family:'Rouge Script';-inkscape-font-specification:'Rouge Script';fill:#abf0d1;fill-opacity:1;stroke:none;stroke-width:0.20480044;stroke-miterlimit:4;stroke-dasharray:none;stroke-opacity:1"
         id="path883"
         inkscape:connector-curvature="0" />
    </g>
  </g>
</svg>
