<?xml version="1.0" encoding="UTF-8" standalone="no"?>
<!-- Created with Inkscape (http://www.inkscape.org/) -->

<svg
   xmlns:dc="http://purl.org/dc/elements/1.1/"
   xmlns:cc="http://creativecommons.org/ns#"
   xmlns:rdf="http://www.w3.org/1999/02/22-rdf-syntax-ns#"
   xmlns:svg="http://www.w3.org/2000/svg"
   xmlns="http://www.w3.org/2000/svg"
   xmlns:sodipodi="http://sodipodi.sourceforge.net/DTD/sodipodi-0.dtd"
   xmlns:inkscape="http://www.inkscape.org/namespaces/inkscape"
   width="20.381445mm"
   height="20.381445mm"
   viewBox="0 0 20.381445 20.381445"
   version="1.1"
   id="svg12465"
   inkscape:version="0.92.3 (2405546, 2018-03-11)"
   sodipodi:docname="youtube_for_dark.svg">
  <defs
     id="defs12459" />
  <sodipodi:namedview
     id="base"
     pagecolor="#ffffff"
     bordercolor="#666666"
     borderopacity="1.0"
     inkscape:pageopacity="0.0"
     inkscape:pageshadow="2"
     inkscape:zoom="2.8"
     inkscape:cx="-32.480939"
     inkscape:cy="7.9211152"
     inkscape:document-units="mm"
     inkscape:current-layer="layer1"
     showgrid="false"
     fit-margin-top="0"
     fit-margin-left="0"
     fit-margin-right="0"
     fit-margin-bottom="0"
     inkscape:pagecheckerboard="true"
     inkscape:window-width="1920"
     inkscape:window-height="1017"
     inkscape:window-x="-8"
     inkscape:window-y="-8"
     inkscape:window-maximized="1" />
  <metadata
     id="metadata12462">
    <rdf:RDF>
      <cc:Work
         rdf:about="">
        <dc:format>image/svg+xml</dc:format>
        <dc:type
           rdf:resource="http://purl.org/dc/dcmitype/StillImage" />
        <dc:title></dc:title>
      </cc:Work>
    </rdf:RDF>
  </metadata>
  <g
     inkscape:label="Layer 1"
     inkscape:groupmode="layer"
     id="layer1"
     transform="translate(-95.642609,-138.64261)">
    <rect
       style="opacity:1;fill:#e9e9e9;fill-opacity:1;stroke:none;stroke-width:0.02298107;stroke-linecap:round;stroke-linejoin:round;stroke-miterlimit:4;stroke-dasharray:none;stroke-dashoffset:0;stroke-opacity:1;paint-order:normal"
       id="rect4822-8-9-2"
       width="20.381445"
       height="20.381445"
       x="95.642609"
       y="138.64261"
       ry="3.7182372" />
    <g
       transform="matrix(0.03228356,0,0,0.03228356,97.053708,140.05371)"
       id="g10">
      <path
         style="fill:#1e1e1e;fill-opacity:1"
         d="m 91.654,13.758 h 40.793 l 5.249,21 4.444,15.507 3.633,15.186 3.633,15.833 2.828,13.25 h 1.615 l 2.828,-13.25 3.231,-15.833 4.036,-15.186 4.041,-15.507 5.651,-21 h 39.58 l -42,126.007 v 89.489 H 133.66 V 139.76 Z"
         id="path2-57"
         inkscape:connector-curvature="0" />
      <path
         style="fill:#1e1e1e;fill-opacity:1"
         d="m 263.697,66.74 c 31.906,0 48.06,15.186 48.06,45.231 v 74.314 c 0,30.045 -16.159,45.231 -48.06,45.231 -31.901,0 -48.06,-15.186 -48.06,-45.231 v -74.314 c 0,-30.04 16.154,-45.231 48.06,-45.231 z m 0,25.852 c -8.485,0 -12.923,5.167 -12.923,14.86 v 83.354 c 0,9.372 4.846,14.865 12.923,14.865 8.077,0 12.918,-5.493 12.918,-14.865 v -83.354 c -0.001,-9.693 -4.841,-14.86 -12.918,-14.86 z"
         id="path4"
         inkscape:connector-curvature="0" />
      <path
         style="fill:#1e1e1e;fill-opacity:1"
         d="m 411.911,229.254 -2.834,-13.891 c -14.544,11.955 -23.024,16.154 -33.124,16.154 -8.485,0 -17.361,-3.878 -21.403,-9.051 -4.444,-5.493 -5.662,-11.308 -5.662,-27.783 V 68.682 h 35.142 v 125.033 c 0,8.077 2.834,11.955 9.284,11.955 4.438,0 8.49,-1.615 15.752,-6.462 V 68.682 h 35.131 v 160.572 z"
         id="path6"
         inkscape:connector-curvature="0" />
      <path
         style="fill:#1e1e1e;fill-opacity:1"
         d="M 94.618,258.521 C 42.381,258.521 0,300.903 0,353.145 v 82.462 c 0,52.237 42.381,94.542 94.618,94.542 h 354.671 c 52.237,0 94.618,-42.3 94.618,-94.542 v -82.462 c 0,-52.237 -42.381,-94.618 -94.618,-94.618 z m -43.725,36.41 h 99.535 v 25.493 H 117.027 V 490.84 H 82.875 V 320.413 H 50.893 c 0,0 0,-25.482 0,-25.482 z m 226.565,0 h 31.895 v 63.719 c 12.483,-11.166 20.946,-15.572 30.481,-15.572 7.348,0 15.403,3.535 19.08,8.246 4.036,5.292 5.162,10.584 5.162,26.156 v 81.048 c 0,15.273 -1.126,20.532 -5.162,25.814 -3.677,4.998 -11.694,8.496 -19.407,8.496 -9.551,0 -17.672,-4.368 -30.154,-15.822 v 13.832 h -31.895 z m 164.499,48.135 c 26.434,0 42.898,13.783 42.898,36.398 v 42.898 h -55.391 v 31.982 c 0,10.574 3.291,14.996 11.743,14.996 4.041,0 7.653,-1.773 9.491,-4.417 1.838,-2.638 2.252,-5.831 2.252,-16.41 v -8.822 h 31.9 v 5.325 c 0.359,3.824 0.408,6.451 0.408,7.914 0,25.846 -15.8,39.901 -44.802,39.901 -27.533,0 -42.979,-14.626 -42.979,-41.07 v -67.879 c -10e-4,-27.61 14.744,-40.816 44.48,-40.816 z m -285.698,1.746 h 31.982 V 458.51 c 0,7.348 2.54,10.824 8.414,10.824 4.036,0 7.718,-1.43 14.326,-5.831 V 344.812 h 31.987 v 146.017 h -29.404 l -2.584,-12.662 c -13.217,10.867 -20.891,14.658 -30.067,14.658 -7.707,0 -15.822,-3.465 -19.488,-8.169 -4.036,-4.982 -5.162,-10.329 -5.162,-25.313 z m 167.42,21.751 c -4.036,0 -7.718,1.501 -14.327,5.907 v 91.039 c 6.614,4.411 10.291,5.831 14.327,5.831 5.874,0 8.496,-3.486 8.496,-10.824 v -81.058 c 0,-7.626 -2.622,-10.895 -8.496,-10.895 z m 117.527,0 c -7.348,0 -11.743,3.824 -11.743,10.568 v 24.655 h 23.486 v -24.655 c 0,-6.744 -4.4,-10.568 -11.743,-10.568 z"
         id="path8"
         inkscape:connector-curvature="0" />
    </g>
  </g>
</svg>
