<?xml version="1.0" encoding="UTF-8" standalone="no"?>
<!-- Created with Inkscape (http://www.inkscape.org/) -->

<svg
   xmlns:dc="http://purl.org/dc/elements/1.1/"
   xmlns:cc="http://creativecommons.org/ns#"
   xmlns:rdf="http://www.w3.org/1999/02/22-rdf-syntax-ns#"
   xmlns:svg="http://www.w3.org/2000/svg"
   xmlns="http://www.w3.org/2000/svg"
   xmlns:sodipodi="http://sodipodi.sourceforge.net/DTD/sodipodi-0.dtd"
   xmlns:inkscape="http://www.inkscape.org/namespaces/inkscape"
   width="21.404211mm"
   height="21.404211mm"
   viewBox="0 0 21.404211 21.404211"
   version="1.1"
   id="svg11888"
   inkscape:version="0.92.3 (2405546, 2018-03-11)"
   sodipodi:docname="facebook_for_light.svg">
  <defs
     id="defs11882" />
  <sodipodi:namedview
     id="base"
     pagecolor="#ffffff"
     bordercolor="#666666"
     borderopacity="1.0"
     inkscape:pageopacity="0.0"
     inkscape:pageshadow="2"
     inkscape:zoom="1.979899"
     inkscape:cx="-4.7974721"
     inkscape:cy="34.347649"
     inkscape:document-units="mm"
     inkscape:current-layer="layer1"
     showgrid="false"
     fit-margin-top="0"
     fit-margin-left="0"
     fit-margin-right="0"
     fit-margin-bottom="0"
     inkscape:pagecheckerboard="true"
     inkscape:window-width="1920"
     inkscape:window-height="1017"
     inkscape:window-x="-8"
     inkscape:window-y="-8"
     inkscape:window-maximized="1" />
  <metadata
     id="metadata11885">
    <rdf:RDF>
      <cc:Work
         rdf:about="">
        <dc:format>image/svg+xml</dc:format>
        <dc:type
           rdf:resource="http://purl.org/dc/dcmitype/StillImage" />
        <dc:title></dc:title>
      </cc:Work>
    </rdf:RDF>
  </metadata>
  <g
     inkscape:label="Layer 1"
     inkscape:groupmode="layer"
     id="layer1"
     transform="translate(-95.131226,-138.13123)">
    <rect
       ry="3.9048228"
       y="138.13123"
       x="95.131226"
       height="21.404211"
       width="21.404211"
       id="rect4822-3-9-9-3"
       style="opacity:1;fill:#1e1e1e;fill-opacity:1;stroke:none;stroke-width:0.02413429;stroke-linecap:round;stroke-linejoin:round;stroke-miterlimit:4;stroke-dasharray:none;stroke-dashoffset:0;stroke-opacity:1;paint-order:normal" />
    <path
       inkscape:connector-curvature="0"
       style="fill:#e9e9e9;fill-opacity:1;stroke-width:1.04193461"
       d="M 112.60593,140.49786 H 99.060738 c -0.85958,0 -1.56288,0.70329 -1.56288,1.56288 v 13.54514 c 0,0.85963 0.7033,1.56293 1.56288,1.56293 h 6.772622 v -7.29353 h -2.08389 v -2.08389 h 2.08389 v -1.04192 c 0,-1.72234 1.40347,-3.12581 3.1258,-3.12581 h 2.08384 v 2.08385 h -2.08384 c -0.5731,0 -1.04196,0.4689 -1.04196,1.04196 v 1.04192 h 3.1258 l -0.52097,2.08389 h -2.60483 v 7.29353 h 4.68873 c 0.85958,0 1.56288,-0.7033 1.56288,-1.56293 v -13.54514 c 0,-0.85959 -0.7033,-1.56288 -1.56288,-1.56288 z"
       id="path2-2-7" />
    <rect
       style="opacity:1;fill:#1e1e1e;fill-opacity:1;stroke:none;stroke-width:0.02413429;stroke-linecap:round;stroke-linejoin:round;stroke-miterlimit:4;stroke-dasharray:none;stroke-dashoffset:0;stroke-opacity:1;paint-order:normal"
       id="rect12441"
       width="21.404211"
       height="21.404211"
       x="95.131226"
       y="138.13123"
       ry="3.9048228" />
    <path
       id="path12443"
       d="M 112.60593,140.49786 H 99.060738 c -0.85958,0 -1.56288,0.70329 -1.56288,1.56288 v 13.54514 c 0,0.85963 0.7033,1.56293 1.56288,1.56293 h 6.772622 v -7.29353 h -2.08389 v -2.08389 h 2.08389 v -1.04192 c 0,-1.72234 1.40347,-3.12581 3.1258,-3.12581 h 2.08384 v 2.08385 h -2.08384 c -0.5731,0 -1.04196,0.4689 -1.04196,1.04196 v 1.04192 h 3.1258 l -0.52097,2.08389 h -2.60483 v 7.29353 h 4.68873 c 0.85958,0 1.56288,-0.7033 1.56288,-1.56293 v -13.54514 c 0,-0.85959 -0.7033,-1.56288 -1.56288,-1.56288 z"
       style="fill:#e9e9e9;fill-opacity:1;stroke-width:1.04193461"
       inkscape:connector-curvature="0" />
  </g>
</svg>
