<?xml version="1.0" encoding="UTF-8" standalone="no"?>
<!-- Created with Inkscape (http://www.inkscape.org/) -->

<svg
   xmlns:dc="http://purl.org/dc/elements/1.1/"
   xmlns:cc="http://creativecommons.org/ns#"
   xmlns:rdf="http://www.w3.org/1999/02/22-rdf-syntax-ns#"
   xmlns:svg="http://www.w3.org/2000/svg"
   xmlns="http://www.w3.org/2000/svg"
   xmlns:sodipodi="http://sodipodi.sourceforge.net/DTD/sodipodi-0.dtd"
   xmlns:inkscape="http://www.inkscape.org/namespaces/inkscape"
   width="21.404211mm"
   height="21.404211mm"
   viewBox="0 0 21.404211 21.404211"
   version="1.1"
   id="svg7900"
   inkscape:version="0.92.3 (2405546, 2018-03-11)"
   sodipodi:docname="mail_for_dark.svg">
  <defs
     id="defs7894" />
  <sodipodi:namedview
     id="base"
     pagecolor="#ffffff"
     bordercolor="#666666"
     borderopacity="1.0"
     inkscape:pageopacity="0.0"
     inkscape:pageshadow="2"
     inkscape:zoom="3.959798"
     inkscape:cx="-6.8787882"
     inkscape:cy="36.955162"
     inkscape:document-units="mm"
     inkscape:current-layer="layer1"
     showgrid="false"
     fit-margin-top="0"
     fit-margin-left="0"
     fit-margin-right="0"
     fit-margin-bottom="0"
     inkscape:pagecheckerboard="true"
     inkscape:window-width="1920"
     inkscape:window-height="1017"
     inkscape:window-x="-8"
     inkscape:window-y="-8"
     inkscape:window-maximized="1" />
  <metadata
     id="metadata7897">
    <rdf:RDF>
      <cc:Work
         rdf:about="">
        <dc:format>image/svg+xml</dc:format>
        <dc:type
           rdf:resource="http://purl.org/dc/dcmitype/StillImage" />
        <dc:title></dc:title>
      </cc:Work>
    </rdf:RDF>
  </metadata>
  <g
     inkscape:label="Layer 1"
     inkscape:groupmode="layer"
     id="layer1"
     transform="translate(-96.64312,-140.39909)">
    <rect
       style="opacity:1;fill:#e9e9e9;fill-opacity:1;stroke:none;stroke-width:0.02413429;stroke-linecap:round;stroke-linejoin:round;stroke-miterlimit:4;stroke-dasharray:none;stroke-dashoffset:0;stroke-opacity:1;paint-order:normal"
       id="rect4822-8-19"
       width="21.404211"
       height="21.404211"
       x="96.64312"
       y="140.39909"
       ry="3.9048228" />
    <g
       style="fill:#1e1e1e;fill-opacity:1"
       transform="matrix(0.28520022,0,0,0.28520022,93.655626,137.41158)"
       id="XMLID_2_">
      <path
         id="XMLID_6_"
         class="st0"
         d="m 75.5,40.3 v 24.4 c 0,1.4 -0.5,2.5 -1.4,3.5 -1,1 -2.1,1.4 -3.5,1.4 H 25.4 c -1.4,0 -2.5,-0.5 -3.5,-1.4 -1,-0.9 -1.4,-2.1 -1.4,-3.5 V 40.3 c 0.9,1 1.9,1.9 3.1,2.7 7.4,5 12.5,8.6 15.3,10.6 1.2,0.9 2.1,1.5 2.8,2 0.7,0.5 1.7,1 2.9,1.5 1.2,0.5 2.3,0.8 3.4,0.8 v 0 c 1,0 2.2,-0.3 3.4,-0.8 1.2,-0.5 2.2,-1 2.9,-1.5 0.7,-0.5 1.7,-1.2 2.8,-2 3.5,-2.5 8.6,-6 15.3,-10.6 1.2,-0.8 2.2,-1.7 3.1,-2.7 z m 0,-9 c 0,1.6 -0.5,3.2 -1.5,4.6 -1,1.5 -2.3,2.7 -3.7,3.8 -7.7,5.3 -12.5,8.7 -14.4,10 -0.2,0.1 -0.6,0.5 -1.3,0.9 -0.7,0.5 -1.2,0.9 -1.7,1.2 -0.5,0.3 -1,0.6 -1.6,1 -0.6,0.4 -1.2,0.6 -1.8,0.8 -0.6,0.2 -1.1,0.3 -1.5,0.3 v 0 c -0.5,0 -1,-0.1 -1.5,-0.3 -0.6,-0.2 -1.1,-0.5 -1.8,-0.8 -0.6,-0.4 -1.2,-0.7 -1.6,-1 -0.4,-0.3 -1,-0.7 -1.7,-1.2 -0.7,-0.5 -1.1,-0.8 -1.3,-0.9 -1.9,-1.3 -4.5,-3.2 -8,-5.6 -3.5,-2.4 -5.6,-3.9 -6.3,-4.4 -1.3,-0.9 -2.5,-2 -3.6,-3.5 -1.1,-1.5 -1.7,-2.9 -1.7,-4.2 0,-1.6 0.4,-2.9 1.3,-4 0.8,-1.1 2.1,-1.6 3.6,-1.6 h 45.2 c 1.3,0 2.5,0.5 3.5,1.4 0.9,1 1.4,2.2 1.4,3.5 z"
         inkscape:connector-curvature="0"
         style="fill:#1e1e1e;fill-opacity:1" />
    </g>
  </g>
</svg>
