<?xml version="1.0" encoding="UTF-8" standalone="no"?>
<!-- Created with Inkscape (http://www.inkscape.org/) -->

<svg
   xmlns:dc="http://purl.org/dc/elements/1.1/"
   xmlns:cc="http://creativecommons.org/ns#"
   xmlns:rdf="http://www.w3.org/1999/02/22-rdf-syntax-ns#"
   xmlns:svg="http://www.w3.org/2000/svg"
   xmlns="http://www.w3.org/2000/svg"
   xmlns:sodipodi="http://sodipodi.sourceforge.net/DTD/sodipodi-0.dtd"
   xmlns:inkscape="http://www.inkscape.org/namespaces/inkscape"
   width="21.356993mm"
   height="21.356991mm"
   viewBox="0 0 21.356993 21.356991"
   version="1.1"
   id="svg7332"
   inkscape:version="0.92.3 (2405546, 2018-03-11)"
   sodipodi:docname="home_mint.svg">
  <defs
     id="defs7326" />
  <sodipodi:namedview
     id="base"
     pagecolor="#ffffff"
     bordercolor="#666666"
     borderopacity="1.0"
     inkscape:pageopacity="0.0"
     inkscape:pageshadow="2"
     inkscape:zoom="3.959798"
     inkscape:cx="5.5182383"
     inkscape:cy="13.265713"
     inkscape:document-units="mm"
     inkscape:current-layer="layer1"
     showgrid="false"
     fit-margin-top="0"
     fit-margin-left="0"
     fit-margin-right="0"
     fit-margin-bottom="0"
     inkscape:pagecheckerboard="true"
     inkscape:window-width="1920"
     inkscape:window-height="1017"
     inkscape:window-x="-8"
     inkscape:window-y="-8"
     inkscape:window-maximized="1" />
  <metadata
     id="metadata7329">
    <rdf:RDF>
      <cc:Work
         rdf:about="">
        <dc:format>image/svg+xml</dc:format>
        <dc:type
           rdf:resource="http://purl.org/dc/dcmitype/StillImage" />
        <dc:title></dc:title>
      </cc:Work>
    </rdf:RDF>
  </metadata>
  <g
     inkscape:label="Layer 1"
     inkscape:groupmode="layer"
     id="layer1"
     transform="translate(-95.154838,-138.15484)">
    <path
       d="m 115.77768,147.49852 -1.93548,-1.93414 v -4.73992 c 0,-0.73415 -0.60066,-1.33481 -1.33481,-1.33481 h -1.33481 c -0.73414,0 -1.33481,0.60066 -1.33481,1.33481 v 0.73815 l -2.66962,-2.66696 c -0.3644,-0.34436 -0.69811,-0.74081 -1.33482,-0.74081 -0.6367,0 -0.97041,0.39643 -1.33481,0.74081 l -8.609541,8.60287 c -0.41646,0.43382 -0.734141,0.75017 -0.734141,1.33481 0,0.7515 0.576637,1.33482 1.33481,1.33482 h 1.33481 v 8.00887 c 0,0.73414 0.600668,1.33481 1.334815,1.33481 h 2.330267 v -8.71021 c 0,-0.73415 0.99658,-1.33482 3.00898,-1.33482 h 2.66963 c 2.04067,0 2.96373,0.60067 2.96373,1.33482 v 8.71021 h 2.37551 c 0.73415,0 1.33481,-0.60067 1.33481,-1.33481 v -8.00887 h 1.33482 c 0.75817,0 1.33481,-0.58332 1.33481,-1.33482 0,-0.58464 -0.31768,-0.90099 -0.73415,-1.33481 z"
       id="path2-3-6"
       inkscape:connector-curvature="0"
       sodipodi:nodetypes="ccssssccsccsscsscsssscsscssc"
       style="fill:#abf0d1;fill-opacity:1;stroke-width:1.33481205" />
  </g>
</svg>
